<?xml version="1.0" encoding="UTF-8"?><svg id="Layer_1" xmlns="http://www.w3.org/2000/svg" viewBox="0 0 323.34 163.45"><defs><style>.cls-1{fill:#003087;}.cls-1,.cls-2{fill-rule:evenodd;stroke-width:0px;}.cls-2{fill:#222;}</style></defs><path class="cls-1" d="M134.45,69.89l92.66,17.03c1.32.17,2.3-.2,2.87-1.17L279.94,5.56l40.55,91.72-145.49,64.32-40.54-91.7ZM138.94,60.62L270.26,2.56l-44.27,71.1c-.91,1.52-2.39,2.31-4.52,2.24l-82.53-15.29Z"/><path class="cls-2" d="M186.26,27.02l-138.89-.04,114.85,10.65,24.04-10.6ZM2.51,45.91l141.69-.35-24.65,10.87L2.51,45.91ZM122.92,73.95l-65.56.2,70.51,10.88-4.95-11.08ZM135.4,101.89l-120.93.28,125.94,10.93-5.01-11.21ZM65.13,128.97l82.24-.31,5.1,11.41-87.33-11.1ZM228.76,8.29l-112.33.17,87.99,10.56,24.35-10.73Z"/></svg>